<?xml version="1.0" encoding="iso-8859-1"?>
<!-- Generator: Adobe Illustrator 19.0.0, SVG Export Plug-In . SVG Version: 6.00 Build 0)  -->
<svg version="1.1" id="Capa_1" xmlns="http://www.w3.org/2000/svg" xmlns:xlink="http://www.w3.org/1999/xlink" x="0px" y="0px"
	 viewBox="0 0 334.8 334.8" style="enable-background:new 0 0 334.8 334.8;" xml:space="preserve">
<g>
	<circle style="fill:#90DEE0;" cx="167.403" cy="216.4" r="32.4"/>
	<path style="fill:#90DEE0;" d="M146.603,262.4h41.6c24.4,0,44.4,20,44.4,44.4v28h-130.4v-28
		C102.203,282.4,122.203,262.4,146.603,262.4z"/>
</g>
<path style="fill:#B0D84E;" d="M56.203,242.4h41.6c15.6,0,30,8.4,38,21.6c-19.6,5.2-33.6,22.8-33.6,43.2v8h-90.4v-28
	C11.403,262.4,31.403,242.4,56.203,242.4z"/>
<path style="fill:#FF6666;" d="M237.003,242.4h41.6c24.4,0,44.4,20,44.4,44.4v28h-90.4v-8c0-20.4-14-38-33.6-43.2
	C207.403,250.4,221.803,242.4,237.003,242.4z"/>
<circle style="fill:#B0D84E;" cx="77.003" cy="196" r="32.4"/>
<g>
	<circle style="fill:#FF6666;" cx="257.803" cy="196" r="32.4"/>
	<path style="fill:#FF6666;" d="M167.403,0c46.8,0,84.4,30.4,84.4,67.6s-37.6,68-84.4,68c-10.8,0-21.2-1.6-31.6-4.8l-30.8,18
		l4.8-31.2c-16.4-12.4-26.8-30-26.8-49.6C83.003,30.4,120.603,0,167.403,0z"/>
</g>
<g>
	<circle style="fill:#FFFFFF;" cx="128.603" cy="66.8" r="6"/>
	<circle style="fill:#FFFFFF;" cx="167.803" cy="66.8" r="6"/>
	<circle style="fill:#FFFFFF;" cx="206.603" cy="66.8" r="6"/>
</g>
<g>
</g>
<g>
</g>
<g>
</g>
<g>
</g>
<g>
</g>
<g>
</g>
<g>
</g>
<g>
</g>
<g>
</g>
<g>
</g>
<g>
</g>
<g>
</g>
<g>
</g>
<g>
</g>
<g>
</g>
</svg>
