<?xml version="1.0" encoding="iso-8859-1"?>
<!-- Generator: Adobe Illustrator 19.0.0, SVG Export Plug-In . SVG Version: 6.00 Build 0)  -->
<svg version="1.1" id="Capa_1" xmlns="http://www.w3.org/2000/svg" xmlns:xlink="http://www.w3.org/1999/xlink" x="0px" y="0px"
	 viewBox="0 0 426.667 426.667" style="enable-background:new 0 0 426.667 426.667;" xml:space="preserve">
<rect x="140.023" y="190.485" style="fill:#FCD462;" width="144.96" height="14.571"/>
<g>
	<path style="fill:#44C4A1;" d="M139.944,190.485c0,0-19.671-33.54,37.364-68.465c8.215-5.03,32.916-20.038,32.916-20.038
		s29.549,15.35,39.143,20.873c17.126,9.861,43.591,34.232,35.584,67.63H139.944z"/>
	<rect x="208.247" y="68.745" style="fill:#44C4A1;" width="3.772" height="43.456"/>
</g>
<rect x="69.513" y="241.118" style="fill:#FCD462;" width="283.264" height="104.311"/>
<rect x="14.362" y="157.918" style="fill:#31978C;" width="58.291" height="187.507"/>
<path style="fill:#3A556A;" d="M57.019,216.196H29.998v-22.363c0-9.348,3.522-18.354,9.865-25.221l3.544-3.838l3.087,3.293
	c6.762,7.212,10.525,16.728,10.525,26.615V216.196z"/>
<rect x="14.362" y="148.514" style="fill:#FCD462;" width="58.291" height="9.395"/>
<g>
	<path style="fill:#44C4A1;" d="M15.659,148.21c0,0-7.773-13.254,14.765-27.054c3.246-1.988,13.007-7.918,13.007-7.918
		s11.677,6.066,15.468,8.248c6.767,3.897,17.225,13.527,14.061,26.724H15.659z"/>
	<rect x="41.621" y="89.865" style="fill:#44C4A1;" width="3.772" height="43.456"/>
</g>
<rect x="351.488" y="157.918" style="fill:#31978C;" width="58.291" height="187.507"/>
<path style="fill:#3A556A;" d="M394.162,216.196H367.14v-22.363c0-9.348,3.522-18.354,9.865-25.221l3.544-3.838l3.087,3.293
	c6.762,7.212,10.525,16.728,10.525,26.615V216.196z"/>
<rect x="351.488" y="148.514" style="fill:#FCD462;" width="58.291" height="9.395"/>
<g>
	<path style="fill:#44C4A1;" d="M352.358,148.21c0,0-7.773-13.254,14.764-27.054c3.246-1.988,13.007-7.918,13.007-7.918
		s11.677,6.066,15.468,8.248c6.767,3.897,17.225,13.527,14.061,26.724H352.358z"/>
	<rect x="378.752" y="89.865" style="fill:#44C4A1;" width="3.772" height="43.456"/>
	<rect x="129.195" y="205.065" style="fill:#44C4A1;" width="165.743" height="140.356"/>
</g>
<g>
	<path style="fill:#64798A;" d="M237.428,345.415H186.04v-42.528c0-17.778,6.698-34.904,18.761-47.964l6.74-7.298l5.871,6.262
		c12.86,13.716,20.016,31.813,20.016,50.615V345.415z"/>
	<path style="fill:#64798A;" d="M272.645,248.059h-16.744v-13.857c0-5.793,2.183-11.373,6.113-15.628l2.196-2.378l1.913,2.04
		c4.19,4.469,6.522,10.366,6.522,16.492V248.059z"/>
	<path style="fill:#64798A;" d="M165.651,248.059h-16.744v-13.857c0-5.793,2.183-11.373,6.113-15.628l2.196-2.378l1.913,2.04
		c4.19,4.469,6.522,10.366,6.522,16.492V248.059z"/>
</g>
<path style="fill:#44C4A1;" d="M79.294,241.106c0,0-5.928-10.108,11.26-20.634c2.476-1.516,9.92-6.039,9.92-6.039
	s8.905,4.626,11.797,6.291c5.161,2.972,13.137,10.317,10.724,20.382H79.294z"/>
<rect y="345.395" style="fill:#3EA69B;" width="426.667" height="12.527"/>
<path style="fill:#44C4A1;" d="M301.74,241.106c0,0-5.928-10.108,11.26-20.634c2.476-1.516,9.92-6.039,9.92-6.039
	s8.905,4.626,11.797,6.291c5.161,2.972,13.137,10.317,10.724,20.382H301.74z"/>
<rect x="308.565" y="253.875" style="fill:#2D93BA;" width="29.5" height="30.332"/>
<polygon style="fill:#27A2DB;" points="308.568,284.214 308.568,253.882 338.068,253.882 "/>
<g>
	<rect x="322.475" y="253.662" style="fill:#EBF0F3;" width="1.711" height="30.545"/>
	<rect x="308.565" y="267.785" style="fill:#EBF0F3;" width="29.5" height="2.569"/>
</g>
<rect x="308.565" y="296.713" style="fill:#2D93BA;" width="29.5" height="30.332"/>
<polygon style="fill:#27A2DB;" points="308.567,327.064 308.567,296.732 338.067,296.732 "/>
<g>
	<rect x="322.475" y="296.499" style="fill:#EBF0F3;" width="1.711" height="30.545"/>
	<rect x="308.565" y="310.622" style="fill:#EBF0F3;" width="29.5" height="2.569"/>
</g>
<rect x="86.144" y="253.875" style="fill:#2D93BA;" width="29.5" height="30.332"/>
<polygon style="fill:#27A2DB;" points="86.123,284.214 86.123,253.882 115.623,253.882 "/>
<g>
	<rect x="100.019" y="253.662" style="fill:#EBF0F3;" width="1.711" height="30.545"/>
	<rect x="86.144" y="267.785" style="fill:#EBF0F3;" width="29.5" height="2.569"/>
</g>
<rect x="86.101" y="296.713" style="fill:#2D93BA;" width="29.5" height="30.332"/>
<polygon style="fill:#27A2DB;" points="86.122,327.064 86.122,296.732 115.622,296.732 "/>
<g>
	<rect x="100.019" y="296.499" style="fill:#EBF0F3;" width="1.711" height="30.545"/>
	<rect x="86.144" y="310.622" style="fill:#EBF0F3;" width="29.5" height="2.569"/>
</g>
<g>
</g>
<g>
</g>
<g>
</g>
<g>
</g>
<g>
</g>
<g>
</g>
<g>
</g>
<g>
</g>
<g>
</g>
<g>
</g>
<g>
</g>
<g>
</g>
<g>
</g>
<g>
</g>
<g>
</g>
</svg>
