<?xml version="1.0" encoding="iso-8859-1"?>
<!-- Generator: Adobe Illustrator 19.0.0, SVG Export Plug-In . SVG Version: 6.00 Build 0)  -->
<svg version="1.1" id="Capa_1" xmlns="http://www.w3.org/2000/svg" xmlns:xlink="http://www.w3.org/1999/xlink" x="0px" y="0px"
	 viewBox="0 0 496 496" style="enable-background:new 0 0 496 496;" xml:space="preserve">
<rect x="140" y="72" style="fill:#FFA64D;" width="224" height="272"/>
<g>
	<path style="fill:#333333;" d="M92,0C69.944,0,52,17.944,52,40v408c0,26.472,21.528,48,48,48h344v-16c-17.648,0-32-14.352-32-32
		s14.352-32,32-32v-8v-8V0H92z M408.248,480H100c-17.648,0-32-14.352-32-32s14.352-32,32-32h308.248
		C400.64,424.496,396,435.72,396,448S400.64,471.504,408.248,480z M100,400c-12.304,0-23.496,4.688-32,12.32V40
		c0-13.232,10.768-24,24-24h336v384H100z"/>
	<path style="fill:#333333;" d="M132,64v288h240V64H132z M148,123.312L191.312,80h121.376L356,123.312v169.376L312.688,336H191.312
		L148,292.688V123.312z M356,100.688L335.312,80H356V100.688z M168.688,80L148,100.688V80H168.688z M148,315.312L168.688,336H148
		V315.312z M335.312,336L356,315.312V336H335.312z"/>
	<path style="fill:#333333;" d="M252,280c35.272,0,65.112-25.248,70.936-60.048l3.368-20.128l-16.152,12.48
		C300.248,219.952,288.44,224,276,224c-30.872,0-56-25.128-56-56c0-2.856,0.272-5.904,0.84-9.32l3.352-20.112l-16.136,12.472
		C190.224,164.816,180,185.576,180,208C180,247.704,212.296,280,252,280z M204.696,178.04C209.6,213.008,239.704,240,276,240
		c8.544,0,16.864-1.48,24.704-4.368C291.04,252.792,272.728,264,252,264c-30.872,0-56-25.128-56-56
		C196,197.192,199.064,186.872,204.696,178.04z"/>
	<rect x="260" y="136" style="fill:#333333;" width="16" height="16"/>
	<rect x="244" y="152" style="fill:#333333;" width="16" height="16"/>
	<rect x="260" y="168" style="fill:#333333;" width="16" height="16"/>
	<rect x="276" y="152" style="fill:#333333;" width="16" height="16"/>
	<rect x="100" y="440" style="fill:#333333;" width="184" height="16"/>
	<rect x="316" y="440" style="fill:#333333;" width="16" height="16"/>
</g>
<g>
</g>
<g>
</g>
<g>
</g>
<g>
</g>
<g>
</g>
<g>
</g>
<g>
</g>
<g>
</g>
<g>
</g>
<g>
</g>
<g>
</g>
<g>
</g>
<g>
</g>
<g>
</g>
<g>
</g>
</svg>
