<svg height="512pt" viewBox="-91 0 512 512" width="512pt" xmlns="http://www.w3.org/2000/svg"><path d="m330 196c0 39.601562-20.699219 69.601562-60 87v138l-32.101562 30h-146.996094l-30.902344-30v-138c-39.300781-17.398438-60-47.398438-60-87 0-71.699219 140.097656-177.101562 156-189.101562l9-6.898438 9 6.898438c15.902344 12 156 117.402343 156 189.101562zm0 0" fill="#895d3c"/><path d="m330 196c0 39.601562-20.699219 69.601562-60 87v138l-32.101562 30h-72.898438v-451l9 6.898438c15.902344 12 156 117.402343 156 189.101562zm0 0" fill="#714c2f"/><path d="m219.300781 180.699219c-22.5-3-39.300781-22.199219-39.300781-44.699219 0-7.800781 2.101562-15.300781 5.699219-22.199219l11.101562-19.199219-22.199219-3.003906c-3.003906-.296875-6.300781-.597656-9.601562-.597656-41.398438 0-75 33.601562-75 75s33.601562 75 75 75c27 0 51.898438-14.699219 65.398438-38.101562l10.800781-19.5zm0 0" fill="#faecd8"/><g fill="#f4d7af"><path d="m180 271h30v30h-30zm0 0"/><path d="m210 121h30v30h-30zm0 0"/><path d="m180 361h30v30h-30zm0 0"/></g><path d="m120 331h30v30h-30zm0 0" fill="#faecd8"/><path d="m165 241v-150c3.300781 0 6.597656.300781 9.601562.597656l22.199219 3.003906-11.101562 19.199219c-3.597657 6.898438-5.699219 14.398438-5.699219 22.199219 0 22.5 16.800781 41.699219 39.300781 44.699219l21.898438 2.699219-10.800781 19.5c-13.5 23.402343-38.398438 38.101562-65.398438 38.101562zm0 0" fill="#f4d7af"/><path d="m60 421v91h210v-91zm0 0" fill="#eebf00"/><path d="m165 421h105v91h-105zm0 0" fill="#dc9e00"/></svg>